<?xml version="1.0" encoding="UTF-8"?>
<svg id="SVGRoot" width="20px" height="20px" version="1.1" viewBox="0 0 20 20" xmlns="http://www.w3.org/2000/svg" xmlns:cc="http://creativecommons.org/ns#" xmlns:dc="http://purl.org/dc/elements/1.1/" xmlns:rdf="http://www.w3.org/1999/02/22-rdf-syntax-ns#">
 <metadata>
  <rdf:RDF>
   <cc:Work rdf:about="">
    <dc:format>image/svg+xml</dc:format>
    <dc:type rdf:resource="http://purl.org/dc/dcmitype/StillImage"/>
    <dc:title/>
   </cc:Work>
  </rdf:RDF>
 </metadata>
 <g stroke-linecap="round" stroke-linejoin="bevel" stroke-width=".052913">
  <path d="m20.011 10.011c0 5.5228-4.4772 10-10 10-5.5228 0-10-4.4772-10-10 9.9887-0.011343 9.9887-0.011343 20 0" style="mix-blend-mode:normal"/>
  <path d="m8.8e-7 9.9943c0.001566-5.5228 4.48-9.9987 10.003-9.9972 5.5228 0.0016 9.9987 4.48 9.9972 10.003-9.9887 0.0085-9.9887 0.0085-20-0.0057" fill="#fff" style="mix-blend-mode:normal"/>
 </g>
 <g>
  <g transform="translate(-.82785 .27595)" stroke-width=".58527" aria-label="Z">
   <path d="m16.647 12.858c0 0.12955-0.02667 0.25148-0.08002 0.36579-0.04573 0.11431-0.06859 0.23624-0.06859 0.36579 0 0.14479 0.02286 0.28577 0.06859 0.42294 0.04573 0.12955 0.06859 0.26672 0.06859 0.41152 0 0.12193-0.02286 0.23243-0.06859 0.3315-0.04573 0.09145-0.09907 0.17908-0.16003 0.26291-0.05335 0.07621-0.10288 0.15241-0.1486 0.22862-0.04573 0.06859-0.06859 0.14098-0.06859 0.21719 0 0.04573 0.0038 0.08383 0.01143 0.11431 0.01524 0.02286 0.03048 0.04953 0.04572 0.08002 0.01524 0.02286 0.02667 0.06096 0.03429 0.11431 0.01524 0.04573 0.02286 0.11431 0.02286 0.20576v0.36579c0 0.09145-0.0038 0.18671-0.01143 0.28577 0 0.09907-0.0038 0.19052-0.01143 0.27434-0.0076 0.08383-0.01524 0.13336-0.02286 0.1486-0.06097 0.09145-0.09526 0.1829-0.10288 0.27434-0.0076 0.09145-0.02286 0.17908-0.04572 0.26291-0.01524 0.07621-0.05334 0.14098-0.11431 0.19433-0.05335 0.04573-0.15622 0.06859-0.30864 0.06859-0.17528 0-0.35055-0.01143-0.52582-0.03429-0.16765-0.03048-0.33912-0.04572-0.51439-0.04572-0.28958 0-0.57917 0.0381-0.86875 0.11431-0.28196 0.06858-0.57155 0.10288-0.86875 0.10288-0.41151 0-0.82303-0.01905-1.2345-0.05715-0.41152-0.04573-0.82303-0.06859-1.2345-0.06859-0.09145 0-0.17908-0.01524-0.26291-0.04572-0.08383-0.03811-0.17146-0.05716-0.26291-0.05716-0.11431 0-0.24386 0.04191-0.38865 0.12574-0.14479 0.08383-0.32007 0.12574-0.52582 0.12574-0.12955 0-0.25529-0.01905-0.37722-0.05716-0.12193-0.0381-0.24386-0.0762-0.36579-0.11431-0.12193-0.04573-0.24386-0.08764-0.36579-0.12574-0.12193-0.0381-0.25148-0.05715-0.38865-0.05715-0.2972 0-0.5906 0.03048-0.88018 0.09145-0.28958 0.05335-0.58298 0.08002-0.88018 0.08002-0.19814-0.06097-0.3315-0.16004-0.40008-0.2972-0.068586-0.14479-0.10288-0.30482-0.10288-0.4801s0.011431-0.35817 0.034293-0.54869c0.030483-0.19052 0.041914-0.36579 0.034293-0.52582-0.00762-0.14479-0.022862-0.24386-0.045724-0.2972-0.022862-0.05335-0.045724-0.09145-0.068586-0.11431s-0.045724-0.04191-0.068586-0.05715c-0.022855-0.01526-0.034282-0.05718-0.034282-0.12576-0.091448-0.15241-0.14479-0.31626-0.16003-0.49153 0.083827 0 0.14098-0.01905 0.17146-0.05715 0.030483-0.04573 0.045724-0.10669 0.045724-0.1829 0-0.12193 0.041913-0.26672 0.12574-0.43438 0.083827-0.17528 0.19433-0.35436 0.3315-0.53726 0.14479-0.19052 0.30483-0.37722 0.4801-0.56012 0.1829-0.19052 0.36579-0.35817 0.54869-0.50296 0.1829-0.14479 0.35817-0.26291 0.52582-0.35436 0.17527-0.09145 0.3315-0.13717 0.46867-0.13717h0.068586c0.015241-0.06097 0.022862-0.1105 0.022862-0.1486 0-0.07621-0.026672-0.12574-0.080017-0.1486-0.045724-0.03048-0.099068-0.04953-0.16003-0.05715l-0.16003-0.04572c-0.045724-0.01524-0.068586-0.05334-0.068586-0.11431 0-0.09145 0.034293-0.19052 0.10288-0.2972 0.068586-0.11431 0.15241-0.22481 0.25148-0.3315 0.099068-0.10669 0.20195-0.20195 0.30864-0.28577 0.10669-0.09145 0.19814-0.16003 0.27434-0.20576v-0.09145c0-0.08383 0.060494-0.3126 0.081451-0.40023s0.00238-0.034143 0.044289-0.12559c0.083827-0.1829 0.18671-0.35818 0.30864-0.52583 0.12193-0.17527 0.25529-0.33912 0.40008-0.49153 0.14479-0.16003 0.27815-0.2972 0.40008-0.41151 0.076206-0.076206 0.14098-0.17146 0.19433-0.28577 0.053344-0.12193 0.10288-0.24386 0.1486-0.36579 0.045724-0.12193 0.095258-0.23243 0.1486-0.3315 0.060965-0.10669 0.13717-0.1829 0.22862-0.22862l0.25148-0.12574c0.04573-0.030483 0.07621-0.057155 0.09145-0.080017 0.02286-0.030483 0.0381-0.072396 0.04572-0.12574 0.01524-0.060965 0.04572-0.15241 0.09145-0.27434 0.04573-0.11431 0.08764-0.17146 0.12574-0.17146 0.04573-0.00762 0.08002-0.011431 0.10288-0.011431 0.03048-0.00762 0.05334-0.034293 0.06859-0.080017 0.02286-0.045724 0.03429-0.16384 0.03429-0.35436 0-0.11431 0.0076-0.20576 0.02286-0.27434 0.01524-0.076206 0.0381-0.14098 0.06859-0.19433 0.03048-0.060965 0.06858-0.11812 0.11431-0.17146 0.05335-0.060965 0.11431-0.13336 0.1829-0.21719 0.06859-0.076206 0.14098-0.16765 0.21719-0.27434 0.07621-0.10669 0.14479-0.21719 0.20576-0.3315 0.06097-0.11431 0.1105-0.23243 0.1486-0.35436 0.04573-0.12193 0.06859-0.23624 0.06859-0.34293 0-0.20576-0.06477-0.34293-0.19433-0.41151-0.12193-0.068586-0.26672-0.1105-0.43438-0.12574l-0.50296-0.068586c-0.16765-0.030483-0.29339-0.1105-0.37722-0.24005-0.09145 0-0.17908 0.026672-0.26291 0.080017-0.07621 0.053345-0.15241 0.1105-0.22862 0.17146l-0.22862 0.16003c-0.068586 0.045724-0.14479 0.068586-0.22862 0.068586s-0.17908-0.030483-0.28577-0.091448c-0.099068-0.060965-0.22481-0.091448-0.37722-0.091448-0.13717 0-0.27434 0.00762-0.41151 0.022862-0.12955 0.00762-0.26291 0.011431-0.40008 0.011431-0.12955 0-0.25529-0.015241-0.37722-0.045724s-0.24767-0.045724-0.37722-0.045724c-0.15241 0-0.27434 0.045724-0.36579 0.13717-0.091454 0.091448-0.16385 0.20195-0.2172 0.3315-0.045724 0.12955-0.076206 0.27053-0.091448 0.42295-0.015241 0.15241-0.022862 0.28577-0.022862 0.40008 0 0.17527 0.00762 0.35436 0.022862 0.53726 0.015241 0.1829 0.022862 0.36579 0.022862 0.54869 0 0.091448-0.00381 0.22481-0.011431 0.40008-0.00762 0.16765-0.030483 0.33912-0.068586 0.51439-0.030483 0.16765-0.083827 0.31626-0.16003 0.44581-0.076206 0.12955-0.17908 0.19433-0.30864 0.19433-0.053345 0-0.10288-0.00762-0.1486-0.022862-0.045723-0.022862-0.087637-0.045724-0.12574-0.068586-0.19814-0.11431-0.32007-0.24386-0.36579-0.38865-0.045724-0.14479-0.068586-0.30483-0.068586-0.4801v-0.16003c0.00762-0.060965 0.011431-0.12193 0.011431-0.1829 0-0.030483-0.00762-0.11812-0.022862-0.26291-0.015241-0.15241-0.030482-0.31245-0.045724-0.4801-0.015241-0.17527-0.034293-0.3315-0.057155-0.46867-0.015241-0.13717-0.022862-0.21338-0.022862-0.22862-0.015241 0.015241-0.034293 0.030483-0.057155 0.045724-0.015241 0.015241-0.034293 0.022862-0.057155 0.022862s-0.041914-0.019052-0.057155-0.057155c-0.015241-0.038103-0.026672-0.083827-0.034293-0.13717-0.0076207-0.053345-0.015241-0.10288-0.022862-0.1486v-0.10288c0-0.17527 0.011431-0.34293 0.034293-0.50296 0.022862-0.16765 0.034293-0.33912 0.034293-0.51439 0-0.12955 0.022862-0.23624 0.068586-0.32007 0.053345-0.083827 0.11431-0.16003 0.1829-0.22862l0.20576-0.20576c0.076206-0.076206 0.14098-0.16384 0.19433-0.26291 0.045724-0.022862 0.091448-0.034293 0.13717-0.034293 0.091448 0 0.17908 0.019052 0.26291 0.057155 0.083827 0.030483 0.17146 0.045724 0.26291 0.045724 0.038103 0 0.080017-0.019052 0.12574-0.057155 0.053345-0.045724 0.11812-0.095258 0.19433-0.1486 0.076206-0.053345 0.16384-0.099068 0.26291-0.13717 0.10669-0.045724 0.23243-0.068586 0.37722-0.068586 0.28958 0 0.57155 0.041913 0.84589 0.12574 0.28196 0.083827 0.56774 0.12574 0.85732 0.12574 0.22862 0 0.42676-0.053344 0.59441-0.16003 0.19052-0.11431 0.37341-0.19052 0.54869-0.22862 0.1829-0.038103 0.38484-0.057155 0.60584-0.057155 0.19814 0 0.39627 0.011431 0.59441 0.034293 0.20576 0.015241 0.41152 0.022862 0.61727 0.022862 0.30482 0 0.60584-0.019052 0.90304-0.057155 0.2972-0.045724 0.59822-0.068586 0.90305-0.068586 0.11431 0 0.23243 0.00381 0.35436 0.011431 0.12193 0.00762 0.24005 0.026672 0.35436 0.057155 0.07621 0.022862 0.12574 0.049534 0.1486 0.080017 0.02286 0.022862 0.0381 0.053345 0.04572 0.091448 0.01524 0.030483 0.02667 0.064776 0.03429 0.10288 0.01524 0.030483 0.04572 0.064776 0.09145 0.10288 0.06859 0.053345 0.1486 0.087637 0.24005 0.10288 0.09145 0.015241 0.17908 0.053344 0.26291 0.11431 0.09145 0.060965 0.16765 0.16765 0.22862 0.32007 0.06097 0.15241 0.09145 0.39246 0.09145 0.72015 0 0.099068-0.04572 0.21719-0.13717 0.35436-0.08383 0.13717-0.1486 0.25148-0.19433 0.34293-0.06097 0.12955-0.1105 0.26291-0.1486 0.40008-0.03048 0.12955-0.08001 0.2591-0.1486 0.38865-0.0381 0.068586-0.08763 0.14098-0.1486 0.21719-0.05335 0.076206-0.1105 0.15241-0.17146 0.22862-0.05335 0.076206-0.10288 0.15622-0.1486 0.24005-0.0381 0.083827-0.05715 0.16765-0.05715 0.25148v0.034293c0.0076 0.00762 0.01143 0.019052 0.01143 0.034293-0.16765 0-0.30482 0.057155-0.41151 0.17146-0.09907 0.10669-0.18671 0.23624-0.26291 0.38865-0.06859 0.14479-0.13336 0.28958-0.19433 0.43438-0.05335 0.14479-0.11431 0.24767-0.1829 0.30864-0.11431 0.099068-0.22862 0.19433-0.34293 0.28577-0.11431 0.091448-0.24767 0.15622-0.40008 0.19433-0.04573 0.14479-0.1105 0.28577-0.19433 0.42295-0.07621 0.12955-0.15622 0.26291-0.24005 0.40008-0.08383 0.12955-0.16384 0.26291-0.24005 0.40008-0.06859 0.12955-0.11431 0.26672-0.13717 0.41151-0.01524 0.091448-0.04191 0.1486-0.08002 0.17146-0.0381 0.022862-0.0762 0.041914-0.11431 0.057155-0.03048 0.00762-0.06096 0.034293-0.09145 0.080017-0.02286 0.038103-0.03429 0.12193-0.03429 0.25148 0 0.060965-0.01905 0.10288-0.05715 0.12574-0.0381 0.015241-0.08382 0.026672-0.13717 0.034293-0.05335 0.00762-0.1105 0.015241-0.17146 0.022862-0.05335 0.00762-0.09526 0.030483-0.12574 0.068586 0.0076 0.038103 0.01143 0.072396 0.01143 0.10288 0.0076 0.030483 0.0075 0.025713 0.0075 0.063816 0 0.11431-0.02277 0.26006-0.07611 0.35913-0.04573 0.09907-0.1105 0.19052-0.19433 0.27434-0.07621 0.07621-0.16765 0.14479-0.27434 0.20576-0.09907 0.06097-0.19814 0.10669-0.2972 0.13717l0.01143 0.13717c0 0.11431-0.03429 0.21719-0.10288 0.30864-0.06859 0.08383-0.14479 0.17146-0.22862 0.26291-0.076206 0.08383-0.1486 0.17528-0.21719 0.27434-0.068586 0.09907-0.10288 0.221-0.10288 0.36579 0 0.06097-0.019052 0.11812-0.057155 0.17146-0.038103 0.04573-0.083827 0.09145-0.13717 0.13717-0.053345 0.04573-0.1105 0.08764-0.17146 0.12574-0.053345 0.0381-0.099068 0.07239-0.13717 0.10288-0.10669 0.08383-0.17908 0.16004-0.21719 0.22862-0.038103 0.06859-0.068586 0.13336-0.091448 0.19433-0.022862 0.06097-0.045724 0.12955-0.068586 0.20576-0.015241 0.06859-0.049534 0.15241-0.10288 0.25148-0.045724 0.07621-0.10669 0.16003-0.1829 0.25148-0.076206 0.09145-0.1486 0.18671-0.21719 0.28577-0.068586 0.09907-0.12955 0.19814-0.1829 0.2972-0.053345 0.09907-0.080017 0.19052-0.080017 0.27434 0 0.08383 0.022862 0.15622 0.068586 0.21719 0.053345 0.06097 0.11431 0.11431 0.1829 0.16003 0.068586 0.0381 0.14479 0.06858 0.22862 0.09145 0.083827 0.02286 0.16003 0.03429 0.22862 0.03429 0.13717 1e-6 0.27434-0.01524 0.41151-0.04572 0.13717-0.0381 0.27815-0.05715 0.42295-0.05715 0.43438 0 0.86113 0.03048 1.2803 0.09145 0.42676 0.05335 0.85732 0.08002 1.2917 0.08002 0.16003 0 0.36579-0.01524 0.61727-0.04572 0.25148-0.0381 0.49534-0.09525 0.73158-0.17146 0.24386-0.08383 0.45343-0.19433 0.6287-0.3315 0.17528-0.14479 0.26291-0.32007 0.26291-0.52582 0-0.0381-0.0038-0.07239-0.01143-0.10288v-0.11431c0-0.12955 0.0076-0.27434 0.02286-0.43438 0.02286-0.16765 0.04191-0.32007 0.05715-0.45724 0.02286-0.13717 0.04191-0.24767 0.05715-0.3315 0.02286-0.08383 0.03429-0.1105 0.03429-0.08002 0-0.05335-0.02286-0.09526-0.06859-0.12574-0.0381-0.0381-0.05715-0.08763-0.05715-0.1486 0-0.08383 0.01905-0.17528 0.05715-0.27434 0.04573-0.10669 0.06859-0.19814 0.06859-0.27434 0-0.05335-0.0038-0.10669-0.01143-0.16003v-0.20576c0-0.08383 0.01524-0.14479 0.04572-0.1829 0.03048-0.04573 0.06477-0.08002 0.10288-0.10288 0.04573-0.02286 0.08383-0.04572 0.11431-0.06859 0.03048-0.02286 0.04572-0.05715 0.04572-0.10288 0-0.06097-0.02286-0.11812-0.06859-0.17146-0.0381-0.05335-0.05715-0.11431-0.05715-0.1829 0-0.09145 0.04572-0.1486 0.13717-0.17146 0.09145-0.02286 0.17146-0.03429 0.24005-0.03429 0.16003 1e-6 0.27053 0.02667 0.3315 0.08002 0.06859 0.04573 0.11431 0.10288 0.13717 0.17146 0.03048 0.06859 0.05334 0.14479 0.06859 0.22862 0.02286 0.08383 0.06858 0.16003 0.13717 0.22862 0.04573 0.05335 0.09907 0.09145 0.16003 0.11431l0.20576 0.04572c0.06858 0.0076 0.13717 0.01905 0.20576 0.03429 0.06859 0.01524 0.12574 0.04953 0.17146 0.10288-0.03048 0.08383-0.04572 0.17909-0.04572 0.28577 0 0.16003 0.03048 0.31626 0.09145 0.46867 0.06859 0.15241 0.10288 0.30864 0.10288 0.46867zm-10.459-7.8645c0-0.068586-0.030483-0.11812-0.091448-0.1486-0.060965-0.030483-0.12193-0.049534-0.1829-0.057155-0.015241 0.038103-0.022862 0.076206-0.022862 0.11431v0.10288c0 0.038103 0.00381 0.087637 0.011431 0.1486 0.015241 0.053345 0.045724 0.080017 0.091448 0.080017 0.053345 0 0.099068-0.026672 0.13717-0.080017 0.038103-0.053345 0.057155-0.10669 0.057155-0.16003zm9.019 10.711c0-0.04573-0.01905-0.08383-0.05715-0.11431-0.03048-0.0381-0.06858-0.05715-0.11431-0.05715-0.07621 0-0.12574 0.04191-0.1486 0.12574-0.01524 0.08383-0.02286 0.15622-0.02286 0.21719 0.06097 0 0.13336-0.0076 0.21719-0.02286 0.08383-0.02286 0.12574-0.07239 0.12574-0.1486z" stroke-width=".58527"/>
  </g>
 </g>
 <g>
  <g transform="translate(-.82785 .27595)" stroke-width=".58527" aria-label="Z">
   <path transform="translate(.82785 -.27595)" d="m7.5684 10.012c-0.02483 0.047297-0.059866 0.090308-0.082031 0.13867-0.041909 0.091447-0.023965 0.037363-0.044922 0.125s-0.082031 0.31656-0.082031 0.40039v0.091797c-0.076206 0.045724-0.16675 0.11363-0.27344 0.20508-0.10669 0.083827-0.20953 0.18042-0.30859 0.28711-0.099068 0.10669-0.18337 0.21577-0.25195 0.33008-0.068586 0.10669-0.10156 0.20738-0.10156 0.29883 0 0.06097 0.022635 0.098041 0.068359 0.11328l0.16016 0.046875c0.060965 0.00762 0.11443 0.026161 0.16016 0.056641 0.053345 0.022862 0.078125 0.072227 0.078125 0.14844 0 0.038101-0.0062434 0.087468-0.021484 0.14844h-0.068359c-0.13717 0-0.29348 0.045268-0.46875 0.13672-0.16765 0.091448-0.34445 0.21068-0.52734 0.35547-0.1829 0.14479-0.36398 0.31144-0.54688 0.50195-0.17527 0.1829-0.33568 0.37003-0.48047 0.56055-0.13717 0.1829-0.2482 0.36184-0.33203 0.53711-0.083828 0.16765-0.125 0.31166-0.125 0.43359 0 0.076203-0.016392 0.13786-0.046875 0.18359-0.030482 0.0381-0.088048 0.056641-0.17188 0.056641 0.015241 0.17528 0.068708 0.33977 0.16016 0.49219 0 0.068583 0.012301 0.10974 0.035156 0.125 0.022862 0.01524 0.045497 0.035734 0.068359 0.058594s0.045497 0.059931 0.068359 0.11328c0.022862 0.053345 0.039255 0.15208 0.046875 0.29688 0.007621 0.16003-0.0046733 0.33683-0.035156 0.52734-0.022862 0.19052-0.035156 0.3716-0.035156 0.54688s0.03493 0.33568 0.10352 0.48047c0.068586 0.13717 0.20225 0.2359 0.40039 0.29688 0.2972 0 0.59128-0.026728 0.88086-0.080078 0.28958-0.06097 0.5817-0.089844 0.87891-0.089844 0.13717 0 0.26674 0.01854 0.38867 0.056641s0.24526 0.07927 0.36719 0.125c0.12193 0.038108 0.2433 0.077134 0.36523 0.11523 0.12193 0.03811 0.2474 0.05664 0.37695 0.05664 0.20576 0 0.3806-0.04117 0.52539-0.125s0.27436-0.12695 0.38867-0.12695c0.091447 0 0.17984 0.020484 0.26367 0.058594 0.083827 0.03048 0.17027 0.044922 0.26172 0.044922 0.41151 0 0.82286 0.022629 1.2344 0.068359 0.41152 0.0381 0.82481 0.056641 1.2363 0.056641 0.2972 0 0.58522-0.032982 0.86719-0.10156 0.28958-0.076209 0.57956-0.11523 0.86914-0.11523 0.17528 0 0.34797 0.016395 0.51562 0.046875 0.17528 0.02286 0.35012 0.033203 0.52539 0.033203 0.15241 0 0.25524-0.022629 0.30859-0.068359 0.06097-0.053345 0.098041-0.11715 0.11328-0.19336 0.02286-0.083827 0.039275-0.17222 0.046875-0.26367 0.007619-0.091448 0.040592-0.18394 0.10156-0.27539 0.00762-0.015241 0.015837-0.064608 0.023437-0.14844 0.00763-0.083827 0.011719-0.17437 0.011719-0.27344 0.00763-0.099068 0.011718-0.19371 0.011718-0.28516v-0.18359-0.18359c0-0.091445-0.008197-0.15935-0.023437-0.20508-0.00762-0.05335-0.017963-0.092374-0.033203-0.11523-0.01524-0.03049-0.031635-0.057218-0.046875-0.080078-0.00763-0.030479-0.011719-0.067552-0.011719-0.11328 0-0.076207 0.02263-0.14821 0.06836-0.2168 0.045721-0.076208 0.095087-0.15231 0.14844-0.22852 0.060964-0.083827 0.11443-0.17222 0.16016-0.26367 0.04573-0.099068 0.070313-0.2101 0.070313-0.33203 0-0.14479-0.024583-0.28061-0.070313-0.41016-0.04573-0.13717-0.068359-0.27904-0.068359-0.42383 0-0.12955 0.022629-0.25092 0.068359-0.36523 0.05335-0.11431 0.080078-0.23568 0.080078-0.36523 0-0.16003-0.032972-0.31634-0.10156-0.46875-0.06097-0.15241-0.091797-0.30872-0.091797-0.46875 0-0.10669 0.014442-0.20328 0.044922-0.28711-0.045724-0.053349-0.10133-0.086322-0.16992-0.10156-0.068586-0.01524-0.13845-0.027556-0.20703-0.035156l-0.20508-0.044922c-0.060963-0.02286-0.11443-0.061885-0.16016-0.11524-0.068592-0.068585-0.11386-0.14468-0.13672-0.22852-0.01525-0.083827-0.03788-0.15993-0.06836-0.22852-0.022862-0.068583-0.070082-0.12614-0.13867-0.17188-0.060965-0.05335-0.17004-0.080077-0.33008-0.080078-0.068585 0-0.14878 0.012296-0.24023 0.035156-0.091451 0.022862-0.13867 0.080425-0.13867 0.17188 0 0.068584 0.020494 0.12829 0.058594 0.18164 0.04573 0.053343 0.068359 0.1109 0.068359 0.17188 0 0.045729-0.016395 0.080655-0.046875 0.10352-0.030479 0.02287-0.067551 0.0455-0.11328 0.06836-0.038109 0.022859-0.073036 0.057785-0.10352 0.10352-0.03048 0.038102-0.044922 0.097811-0.044922 0.18164v0.20508c0.00763 0.053342 0.011719 0.10681 0.011719 0.16016 0 0.076205-0.022629 0.1687-0.068359 0.27539-0.0381 0.099068-0.058594 0.18961-0.058594 0.27344 0 0.060972 0.020494 0.11034 0.058594 0.14844 0.04573 0.030481 0.068359 0.073603 0.068359 0.12695 0-0.03048-0.012296-0.003752-0.035156 0.080078-0.01524 0.083828-0.033781 0.19486-0.056641 0.33203-0.01524 0.13717-0.03378 0.28938-0.05664 0.45703-0.01526 0.16003-0.023438 0.30404-0.023438 0.43359v0.11524c0.00763 0.030489 0.011719 0.063462 0.011719 0.10156 0 0.20576-0.088397 0.3806-0.26367 0.52539-0.17528 0.13717-0.38504 0.2482-0.62891 0.33203-0.23624 0.076214-0.47899 0.13378-0.73047 0.17188-0.25148 0.03048-0.45715 0.044922-0.61719 0.044922-0.43438 0-0.86621-0.026728-1.293-0.080078-0.41914-0.06097-0.84492-0.089844-1.2793-0.089844-0.14479 0-0.28666 0.018541-0.42383 0.056641-0.13717 0.03048-0.27298 0.044923-0.41016 0.044922-0.068586 0-0.14664-0.010343-0.23047-0.033203-0.083827-0.02287-0.15993-0.053697-0.22852-0.091797-0.068586-0.045722-0.1283-0.099187-0.18164-0.16016-0.045724-0.060964-0.068359-0.13297-0.068359-0.2168 0-0.083827 0.026733-0.17632 0.080078-0.27539 0.053345-0.099068 0.11305-0.1978 0.18164-0.29688 0.068586-0.099068 0.14059-0.19371 0.2168-0.28516 0.076206-0.091447 0.13787-0.17574 0.18359-0.25195 0.053345-0.099068 0.088275-0.18336 0.10352-0.25195 0.022862-0.076205 0.045497-0.14411 0.068359-0.20508 0.022862-0.060965 0.053694-0.12672 0.091797-0.19531 0.038103-0.068585 0.11011-0.14469 0.2168-0.22852 0.038104-0.030488 0.083374-0.063462 0.13672-0.10156 0.060965-0.038101 0.11853-0.081223 0.17188-0.12695 0.053344-0.045721 0.098616-0.090989 0.13672-0.13672 0.038103-0.053343 0.056641-0.1109 0.056641-0.17188 0-0.14479 0.03493-0.26616 0.10352-0.36523 0.068586-0.099068 0.14059-0.18961 0.2168-0.27344 0.083827-0.091448 0.15993-0.17984 0.22852-0.26367 0.068588-0.091447 0.10352-0.19428 0.10352-0.30859l-0.011719-0.13672c0.099069-0.03048 0.1978-0.077702 0.29688-0.13867 0.10669-0.060965 0.19918-0.12887 0.27539-0.20508 0.083824-0.083827 0.14763-0.17437 0.19336-0.27344 0.05334-0.099068 0.076172-0.24507 0.076172-0.35938 0-0.038103-2.12e-4 -0.03397-0.007812-0.064453 0-0.030483-0.002166-0.065413-0.009766-0.10352 0.030481-0.038103 0.07165-0.060739 0.125-0.068359 0.060963-0.007621 0.11852-0.013864 0.17188-0.021484 0.020589-0.002941 0.034418-0.009596 0.052735-0.013672-0.77325-1.11e-4 -2.2645-4.27e-4 -3.0801 0zm6.6387 5.7969c0.045729 0 0.084755 0.01854 0.11524 0.05664 0.0381 0.03048 0.05664 0.069505 0.05664 0.11524 0 0.076212-0.04117 0.12558-0.125 0.14844-0.083825 0.01526-0.15778 0.023438-0.21875 0.023438 0-0.060965 0.008198-0.13492 0.023438-0.21875 0.022862-0.08383 0.072227-0.125 0.14844-0.125z" fill="#fff" stroke-width=".58527"/>
  </g>
 </g>
</svg>
